HIERARCHY
ROOT Hips
{
  OFFSET 3.13124 94.3669 -3.18751
  CHANNELS  6 Xposition Yposition Zposition Zrotation Xrotation Yrotation
  JOINT LeftUpLeg
  {
    OFFSET 8.64259 1.95398 -2.38835
    CHANNELS 3 Zrotation Xrotation Yrotation
    JOINT LeftLeg
    {
      OFFSET 43.7702 0 0
      CHANNELS 3 Zrotation Xrotation Yrotation
      JOINT LeftFoot
      {
        OFFSET 40.6238 0 0
        CHANNELS 3 Zrotation Xrotation Yrotation
        JOINT LeftToeBase
        {
          OFFSET 12.7242 0 0
          CHANNELS 3 Zrotation Xrotation Yrotation
          End Site
          {
            OFFSET 0 0 0
          }
        }
      }
    }
  }
  JOINT RightUpLeg
  {
    OFFSET -8.2249 1.95398 -2.59336
    CHANNELS 3 Zrotation Xrotation Yrotation
    JOINT RightLeg
    {
      OFFSET 43.5653 0 0
      CHANNELS 3 Zrotation Xrotation Yrotation
      JOINT RightFoot
      {
        OFFSET 40.6238 0 0
        CHANNELS 3 Zrotation Xrotation Yrotation
        JOINT RightToeBase
        {
          OFFSET 12.7242 0 0
          CHANNELS 3 Zrotation Xrotation Yrotation
          End Site
          {
            OFFSET 0 0 0
          }
        }
      }
    }
  }
  JOINT Spine
  {
    OFFSET 0.165834 0.87714 6.61349
    CHANNELS 3 Zrotation Xrotation Yrotation
    JOINT Spine1
    {
      OFFSET 7.38962 1.71661e-005 0
      CHANNELS 3 Zrotation Xrotation Yrotation
      JOINT Spine2
      {
        OFFSET 11.9445 1.14441e-005 0
        CHANNELS 3 Zrotation Xrotation Yrotation
        JOINT Spine3
        {
          OFFSET 14.7254 4.19617e-005 0
          CHANNELS 3 Zrotation Xrotation Yrotation
          JOINT Spine4
          {
            OFFSET 10.9679 0 0
            CHANNELS 3 Zrotation Xrotation Yrotation
            JOINT RightShoulder
            {
              OFFSET 2.46616 -1.6653 3.69651
              CHANNELS 3 Zrotation Xrotation Yrotation
              JOINT RightArm
              {
                OFFSET 13.0012 0 0
                CHANNELS 3 Zrotation Xrotation Yrotation
                JOINT RightForeArm
                {
                  OFFSET 28.7848 1.52588e-005 0
                  CHANNELS 3 Zrotation Xrotation Yrotation
                  JOINT RightHand
                  {
                    OFFSET 26.5688 1.52588e-005 0
                    CHANNELS 3 Zrotation Xrotation Yrotation
                    End Site
                    {
                      OFFSET 0 0 0
                    }
                  }
                }
              }
            }
            JOINT LeftShoulder
            {
              OFFSET 2.38034 -1.29275 -3.75231
              CHANNELS 3 Zrotation Xrotation Yrotation
              JOINT LeftArm
              {
                OFFSET 16.3182 6.10352e-005 0
                CHANNELS 3 Zrotation Xrotation Yrotation
                JOINT LeftForeArm
                {
                  OFFSET 27.0901 0 0
                  CHANNELS 3 Zrotation Xrotation Yrotation
                  JOINT LeftHand
                  {
                    OFFSET 24.5451 1.52588e-005 0
                    CHANNELS 3 Zrotation Xrotation Yrotation
                    End Site
                    {
                      OFFSET 0 0 0
                    }
                  }
                }
              }
            }
            JOINT Neck
            {
              OFFSET 5.0226 -0.0266342 0
              CHANNELS 3 Zrotation Xrotation Yrotation
              JOINT Head
              {
                OFFSET 6.69363 2.86102e-005 0
                CHANNELS 3 Zrotation Xrotation Yrotation
                End Site
                {
                  OFFSET 0 0 0
                }
              }
            }
          }
        }
      }
    }
  }
}
MOTION
Frames:	14
Frame Time:	0.0333333
-1.83033 98.1075 -21.5328 131.827 -89.9939 131.879 -172.108 2.78962 93.3742 -8.54162 7.93098 -0.464845 63.1697 2.18814 1.17101 28.7808 7.02693e-006 4.47834e-006 179.381 1.90159 89.0364 -7.60992 -0.495615 -0.036889 62.7361 -1.23996 -0.628135 28.7808 1.55393e-005 3.2275e-005 0.00415858 6.34006 -90.0525 14.1935 -0.0102349 3.25693e-006 2.52251 -0.00924422 -4.12944e-006 -20.0127 -0.0119591 4.49161e-006 -1.62004e-022 -0.0119538 -7.76503e-019 100.853 -18.4896 -85.4256 1.72111 42.2895 -20.1715 -3.2971 0.291829 -2.49404 -5.37983 -0.320012 -0.0162419 -79.0405 -21.1428 94.1709 10.3489 -40.7383 -9.1589 6.48361 41.0844 -7.79811 -2.20369 -0.0869772 -0.122427 1.74011 -0.000352331 -0.000454263 -7.39578 0.0010514 0.00237862 
-1.81759 98.1039 -21.4909 141.405 -89.9235 141.431 -172.089 2.77053 93.3638 -8.67192 7.94699 -0.48718 63.2599 2.17744 1.1624 28.7808 7.02693e-006 4.47834e-006 179.381 2.14178 89.0037 -8.3018 -0.431868 -0.0368886 63.0774 -1.25516 -0.642446 28.7808 1.55393e-005 3.2275e-005 0.00204458 6.34025 -90.0264 14.1934 -0.0102349 -1.80824e-005 2.52247 -0.00924422 -2.49532e-005 -20.0127 -0.0119591 -1.68885e-005 -4.32978e-005 -0.0119538 -2.12341e-005 100.828 -18.5 -85.4664 1.61304 42.3291 -20.0065 -3.31152 0.291827 -2.50578 -5.37983 -0.320012 -0.0162419 -79.0654 -21.2836 94.1336 10.4205 -40.807 -9.18533 6.50535 41.3042 -7.76023 -2.10846 -0.0869773 -0.110154 1.54953 -0.00665385 -0.00547706 -7.18095 0.0148354 0.0424553 
-1.80627 98.1012 -21.4701 75.0878 -89.9448 75.118 -172.098 2.80068 93.3564 -8.5993 7.96359 -0.489982 63.2254 2.17396 1.16173 28.7808 7.02693e-006 4.47834e-006 179.37 1.95407 88.9998 -7.78184 -0.462485 -0.0368888 62.8791 -1.21939 -0.618494 28.7808 1.55393e-005 3.2275e-005 0.00319335 6.33978 -90.0406 14.1943 -0.0102349 0.000419103 2.52339 -0.00924422 0.000412606 -20.0118 -0.0119591 0.000426545 0.000885198 -0.0119538 0.000424217 100.923 -18.4951 -85.406 1.60715 42.3245 -20.0203 -3.30484 0.29183 -2.49154 -5.37983 -0.320012 -0.0162419 -78.9724 -21.2532 94.1858 10.2658 -40.7998 -9.24472 6.64307 41.3769 -7.81251 -2.41705 -0.0869769 -0.196335 1.74387 -0.0156365 0.0203574 -7.35113 -0.00937367 0.102732 
-1.78855 98.1045 -21.4383 48.4784 -89.9067 48.5262 -172.093 2.77318 93.3643 -8.4741 8.0189 -0.504494 63.2003 2.20448 1.18116 28.7808 7.02693e-006 4.47834e-006 179.357 1.59931 88.9998 -6.99115 -0.467225 -0.0368888 62.5334 -1.19638 -0.598766 28.7808 1.55393e-005 3.2275e-005 0.00445393 6.32827 -90.0561 14.2174 -0.0102349 0.0119114 2.54647 -0.00924422 0.0118007 -19.9887 -0.0119591 0.0119723 0.0239647 -0.0119538 0.0119673 100.905 -18.4696 -85.3177 1.67921 42.2782 -20.029 -3.31446 0.291829 -2.49511 -5.37983 -0.320012 -0.0162419 -79.0534 -21.2091 94.1286 10.3422 -40.724 -9.08486 6.46887 41.0618 -7.75879 -2.18834 -0.0869767 -0.224262 1.61028 0.0440327 0.0029009 -7.17471 0.042473 0.0324552 
-1.77902 98.0922 -21.4028 98.1976 -89.9104 98.2083 -172.08 2.81994 93.3418 -8.78944 7.98861 -0.516796 63.3414 2.24082 1.19685 28.7808 7.02693e-006 4.47834e-006 179.379 2.37372 88.9782 -8.80789 -0.324883 -0.0368882 63.3549 -1.30273 -0.674518 28.7808 1.55393e-005 3.2275e-005 -0.00119922 6.33157 -90.0023 14.2107 -0.0102349 0.0144876 2.53976 -0.00924422 0.0144768 -19.9954 -0.0119591 0.0137451 0.0172575 -0.0119538 0.0137399 100.89 -18.6715 -85.3628 1.44313 42.3728 -19.9312 -3.29613 0.291825 -2.51489 -5.37983 -0.320012 -0.0162419 -79.0571 -21.1862 94.0968 10.288 -40.7449 -9.07747 6.58147 41.5006 -7.74423 -2.21367 -0.0869765 -0.256859 1.58316 -0.0259081 -0.0954682 -7.14655 -0.0160797 0.244929 
-1.76372 98.0933 -21.3757 42.5118 -89.8687 42.5349 -172.082 2.81854 93.341 -8.58348 8.02005 -0.538985 63.271 2.24372 1.2019 28.7808 7.02693e-006 4.47834e-006 179.355 1.94352 88.9597 -7.7263 -0.425011 -0.0368886 62.9037 -1.22844 -0.623683 28.7808 1.55393e-005 3.2275e-005 -0.0009308 6.31488 -90.0288 14.2442 -0.0102349 0.0232979 2.57321 -0.00924422 0.0233906 -19.962 -0.0119591 0.0212152 0.0506992 -0.0119538 0.0212272 100.904 -18.6404 -85.2908 1.55371 42.3494 -20.0084 -3.29958 0.291824 -2.51936 -5.37983 -0.320012 -0.0162419 -79.0653 -21.1761 94.1153 10.3059 -40.7251 -9.03401 6.53692 41.2787 -7.74598 -2.26465 -0.0863517 -0.258118 1.52546 0.0354014 -0.0864492 -7.15544 0.0430151 0.11372 
-1.75433 98.1142 -21.3473 23.374 -89.8269 23.4615 -172.065 2.77093 93.3983 -8.37543 8.0246 -0.557487 63.1826 2.24422 1.2053 28.7808 7.02693e-006 4.47834e-006 179.35 0.987604 89.0156 -5.65519 -0.483233 -0.0368889 61.964 -1.19682 -0.588704 28.7808 1.55393e-005 3.2275e-005 0.00321124 6.30537 -90.0728 14.2632 -0.0102349 0.0272031 2.59227 -0.00924422 0.0273942 -19.9429 -0.0119591 0.0169898 0.0697509 -0.0119538 0.0169901 100.921 -18.6405 -85.2532 1.58572 42.3389 -20.0301 -3.30205 0.291823 -2.52326 -5.37983 -0.320012 -0.0162419 -79.0283 -21.2257 94.1963 10.3054 -40.701 -9.05964 6.4758 41.2478 -7.7259 -2.00143 -0.0776795 -0.40078 1.6752 0.0100712 -0.104463 -7.37981 0.0185961 0.165164 
-1.74143 98.0958 -21.3057 83.9843 -89.9254 84.0004 -172.04 2.79923 93.3529 -8.85245 8.06154 -0.570842 63.4382 2.2998 1.22914 28.7808 7.02693e-006 4.47834e-006 179.35 2.0709 88.9358 -8.31304 -0.584566 -0.0368895 63.3359 -1.20026 -0.613589 28.7808 1.55393e-005 3.2275e-005 -0.00491747 6.30846 -90.0009 14.257 -0.0102349 0.0291207 2.58601 -0.00924422 0.029407 -19.9491 -0.0122365 0.0153274 0.063498 -0.0122315 0.0153249 100.865 -18.7117 -85.3928 1.43276 42.3737 -19.8256 -3.30082 0.291821 -2.53275 -5.37983 -0.320012 -0.0162419 -79.0763 -21.3123 94.0894 10.4471 -40.7335 -8.91247 6.56981 41.2271 -7.83897 -2.31135 -0.0883029 -0.228101 1.34375 0.0165565 -0.106538 -6.98832 0.0281748 0.119094 
-1.73238 98.0934 -21.2834 25.7186 -89.807 25.7682 -172.054 2.86029 93.3614 -8.63364 8.04435 -0.569577 63.3407 2.28164 1.22198 28.7808 7.02693e-006 4.47834e-006 179.366 1.91161 88.965 -7.63466 -0.392036 -0.0368884 62.9336 -1.21686 -0.617215 28.7808 1.55393e-005 3.2275e-005 -0.00577263 6.2917 -90.0166 14.2905 -0.0104484 0.029905 2.61956 -0.00943487 0.0303113 -19.9156 -0.0167625 0.0140698 0.0970528 -0.0167623 0.0140681 100.913 -18.7663 -85.2582 1.54041 42.3404 -19.9751 -3.28987 0.291828 -2.50079 -5.37983 -0.320012 -0.0162419 -79.0471 -21.2964 94.1636 10.3383 -40.7407 -9.02492 6.61393 41.3763 -7.80993 -2.34802 -0.0897093 -0.317835 1.62318 -0.0078892 -0.154875 -7.28143 0.00997872 0.128811 
-1.7159 98.1054 -21.2511 22.3052 -89.715 22.3916 -172.036 2.83863 93.3912 -8.40924 8.06788 -0.628511 63.2074 2.40557 1.29697 28.7808 7.02693e-006 4.47834e-006 179.343 1.01634 88.9842 -5.64267 -0.435161 -0.0368886 62.0326 -1.18831 -0.584908 28.7808 1.55393e-005 3.2275e-005 -0.0050364 6.27976 -90.0562 14.3144 -0.0140547 0.0303966 2.64348 -0.0127008 0.0309766 -19.8917 -0.0225968 0.013201 0.120969 -0.0225962 0.0132028 100.966 -18.799 -85.1234 1.65255 42.2892 -20.0764 -3.26204 0.291823 -2.52251 -5.37983 -0.320012 -0.0162419 -79.0109 -21.204 94.2415 10.1639 -40.6494 -9.12495 6.55195 41.1994 -7.82458 -2.34573 -0.0911189 -0.19501 1.83944 -0.0215272 -0.253945 -7.51791 0.00695175 0.229466 
-1.70696 98.079 -21.2133 42.5079 -89.7968 42.5357 -172.05 2.92579 93.3368 -8.9138 8.06757 -0.587646 63.469 2.34691 1.25432 28.7808 7.02693e-006 4.47834e-006 179.358 2.24162 88.9394 -8.49042 -0.407269 -0.0368885 63.4228 -1.24469 -0.640427 28.7808 1.55393e-005 3.2275e-005 -0.0136469 6.28208 -89.9916 14.3097 -0.0211096 0.0297646 2.63878 -0.0197783 0.0306303 -19.8964 -0.0290992 0.0127051 0.116263 -0.0291017 0.0127122 100.938 -18.8491 -85.1925 1.58002 42.3072 -19.98 -3.26027 0.291833 -2.4747 -5.37983 -0.320012 -0.0162419 -79.0619 -21.3302 94.1297 10.2811 -40.7016 -9.03157 6.63016 41.4242 -7.85183 -2.36674 -0.0925036 -0.214493 1.58929 -0.0163559 -0.165028 -7.12107 0.00263741 0.150097 
-1.69424 98.078 -21.1886 40.7774 -89.7797 40.8001 -172.018 2.88262 93.3467 -8.81101 8.08856 -0.640696 63.454 2.3739 1.27132 28.7808 7.02693e-006 4.47834e-006 179.348 2.11649 88.9156 -8.22853 -0.389815 -0.0368884 63.3085 -1.19678 -0.611316 28.7808 1.55393e-005 3.2275e-005 -0.020793 6.28123 -89.9966 14.3115 -0.0358936 0.0308006 2.64051 -0.0343993 0.031839 -19.8947 -0.0441313 0.0125662 0.117991 -0.0441238 0.0125797 100.876 -18.8074 -85.3524 1.52792 42.2707 -19.7667 -3.24256 0.29182 -2.53293 -5.37983 -0.320012 -0.0162419 -79.0384 -21.3914 94.1839 10.2969 -40.6854 -9.01896 6.5897 41.2618 -7.84565 -2.40154 -0.0936977 -0.268889 1.72835 0.00950924 -0.134622 -7.16947 0.0220636 0.195198 
-1.67672 98.0854 -21.1686 29.9366 -89.7029 29.9922 -172.019 2.88211 93.3536 -8.62623 8.14537 -0.647631 63.3252 2.5066 1.35075 28.7808 7.02693e-006 4.47834e-006 179.346 1.75278 88.9348 -7.30572 -0.38399 -0.0368884 62.8675 -1.22139 -0.618705 28.7808 1.55393e-005 3.2275e-005 -0.0188532 6.27141 -90.0107 14.3311 -0.0334812 0.0330228 2.66016 -0.0318086 0.034199 -19.875 -0.0430865 0.0127684 0.137631 -0.0430815 0.0127883 100.955 -18.9422 -85.1419 1.66164 42.2779 -20.0632 -3.26065 0.291827 -2.50282 -5.37983 -0.320012 -0.0162419 -79.06 -21.3187 94.1361 10.2248 -40.6375 -8.98616 6.55928 41.2366 -7.82711 -2.32944 -0.0945356 -0.245496 1.83616 0.00622853 -0.125341 -7.22604 0.0175517 0.174419 
-1.66434 98.108 -21.1469 34.4388 -89.7461 34.521 -171.99 2.75712 93.3925 -8.50277 8.10241 -0.673551 63.3612 2.36324 1.27076 28.7808 7.02693e-006 4.47834e-006 179.331 1.07457 88.947 -6.063 -0.440098 -0.0368887 62.4198 -1.20709 -0.601947 28.7808 1.55393e-005 3.2275e-005 -0.0178761 6.27079 -90.032 14.3324 -0.0322963 0.0359084 2.66144 -0.0305568 0.037195 -19.8737 -0.0424263 0.0132958 0.13892 -0.0424208 0.0133213 100.886 -18.9915 -85.319 1.47862 42.2929 -19.795 -3.23583 0.291831 -2.48787 -5.37983 -0.320012 -0.0162419 -79.1138 -21.371 94.0096 10.3147 -40.6594 -8.85751 6.63666 41.2758 -7.90257 -2.49352 -0.094862 -0.137448 1.64884 0.0157291 -0.120812 -6.97868 0.0268009 0.19385 
